<?xml version="1.0" encoding="UTF-8"?>
<svg width="126px" height="63px" viewBox="0 0 126 63" version="1.1" xmlns="http://www.w3.org/2000/svg" xmlns:xlink="http://www.w3.org/1999/xlink">
    <title>03574F01-CCAE-435B-BEFB-7BAEF19BA384</title>
    <g id="Desktop-1920-px" stroke="none" stroke-width="1" fill="none" fill-rule="evenodd">
        <g id="ГЛАВНАЯ-4-Copy" transform="translate(-60.000000, -9.000000)" fill="#FFFFFF">
            <g id="Logo" transform="translate(60.000000, 9.000000)">
                <path d="M51.836,49 L51.836,23.416 L58.232,23.416 L58.232,14.316 L34,14.316 L34,23.416 L40.396,23.416 L40.396,49 L51.836,49 Z M46.792,44.84 L45.44,44.84 L45.44,19.724 L38.004,19.724 L38.004,18.476 L54.228,18.476 L54.228,19.724 L46.792,19.724 L46.792,44.84 Z M77.16,49.884 C79.656,49.884 82.0133333,49.4073333 84.232,48.454 C86.4506667,47.5006667 88.3833333,46.2006667 90.03,44.554 C91.6766667,42.9073333 92.9766667,40.9746667 93.93,38.756 C94.8833333,36.5373333 95.36,34.18 95.36,31.684 C95.36,29.188 94.8833333,26.8306667 93.93,24.612 C92.9766667,22.3933333 91.6766667,20.4606667 90.03,18.814 C88.3833333,17.1673333 86.4506667,15.8673333 84.232,14.914 C82.0133333,13.9606667 79.656,13.484 77.16,13.484 C74.664,13.484 72.3066667,13.9606667 70.088,14.914 C67.8693333,15.8673333 65.9366667,17.1673333 64.29,18.814 C62.6433333,20.4606667 61.3433333,22.3933333 60.39,24.612 C59.4366667,26.8306667 58.96,29.188 58.96,31.684 C58.96,34.18 59.4366667,36.5373333 60.39,38.756 C61.3433333,40.9746667 62.6433333,42.9073333 64.29,44.554 C65.9366667,46.2006667 67.8693333,47.5006667 70.088,48.454 C72.3066667,49.4073333 74.664,49.884 77.16,49.884 Z M77.16,44.996 C75.3226667,44.996 73.598,44.6493333 71.986,43.956 C70.374,43.2626667 68.9613333,42.3093333 67.748,41.096 C66.5346667,39.8826667 65.5813333,38.47 64.888,36.858 C64.1946667,35.246 63.848,33.5213333 63.848,31.684 C63.848,29.8466667 64.1946667,28.122 64.888,26.51 C65.5813333,24.898 66.5346667,23.4853333 67.748,22.272 C68.9613333,21.0586667 70.374,20.1053333 71.986,19.412 C73.598,18.7186667 75.3226667,18.372 77.16,18.372 C78.9973333,18.372 80.722,18.7186667 82.334,19.412 C83.946,20.1053333 85.3586667,21.0586667 86.572,22.272 C87.7853333,23.4853333 88.7386667,24.898 89.432,26.51 C90.1253333,28.122 90.472,29.8466667 90.472,31.684 C90.472,33.5213333 90.1253333,35.246 89.432,36.858 C88.7386667,38.47 87.7853333,39.8826667 86.572,41.096 C85.3586667,42.3093333 83.946,43.2626667 82.334,43.956 C80.722,44.6493333 78.9973333,44.996 77.16,44.996 Z M77.16,43.644 C78.824,43.644 80.3753333,43.332 81.814,42.708 C83.2526667,42.084 84.518,41.226 85.61,40.134 C86.702,39.042 87.56,37.7766667 88.184,36.338 C88.808,34.8993333 89.12,33.348 89.12,31.684 C89.12,30.02 88.808,28.4686667 88.184,27.03 C87.56,25.5913333 86.702,24.326 85.61,23.234 C84.518,22.142 83.2526667,21.284 81.814,20.66 C80.3753333,20.036 78.824,19.724 77.16,19.724 C75.496,19.724 73.9446667,20.036 72.506,20.66 C71.0673333,21.284 69.802,22.142 68.71,23.234 C67.618,24.326 66.76,25.5913333 66.136,27.03 C65.512,28.4686667 65.2,30.02 65.2,31.684 C65.2,33.348 65.512,34.8993333 66.136,36.338 C66.76,37.7766667 67.618,39.042 68.71,40.134 C69.802,41.226 71.0673333,42.084 72.506,42.708 C73.9446667,43.332 75.496,43.644 77.16,43.644 Z M77.16,38.964 C76.1546667,38.964 75.21,38.7733333 74.326,38.392 C73.442,38.0106667 72.6706667,37.4906667 72.012,36.832 C71.3533333,36.1733333 70.8333333,35.402 70.452,34.518 C70.0706667,33.634 69.88,32.6893333 69.88,31.684 C69.88,30.6786667 70.0706667,29.734 70.452,28.85 C70.8333333,27.966 71.3533333,27.1946667 72.012,26.536 C72.6706667,25.8773333 73.442,25.3573333 74.326,24.976 C75.21,24.5946667 76.1546667,24.404 77.16,24.404 C78.1653333,24.404 79.11,24.5946667 79.994,24.976 C80.878,25.3573333 81.6493333,25.8773333 82.308,26.536 C82.9666667,27.1946667 83.4866667,27.966 83.868,28.85 C84.2493333,29.734 84.44,30.6786667 84.44,31.684 C84.44,32.6893333 84.2493333,33.634 83.868,34.518 C83.4866667,35.402 82.9666667,36.1733333 82.308,36.832 C81.6493333,37.4906667 80.878,38.0106667 79.994,38.392 C79.11,38.7733333 78.1653333,38.964 77.16,38.964 Z M108.984,49 L108.984,40.732 C111.202667,40.732 113.274,40.4893333 115.198,40.004 C117.122,39.5186667 118.803333,38.756 120.242,37.716 C121.680667,36.676 122.816,35.3153333 123.648,33.634 C124.48,31.9526667 124.896,29.916 124.896,27.524 C124.896,25.132 124.48,23.0953333 123.648,21.414 C122.816,19.7326667 121.680667,18.372 120.242,17.332 C118.803333,16.292 117.122,15.5293333 115.198,15.044 C113.274,14.5586667 111.202667,14.316 108.984,14.316 L108.984,14.316 L97.908,14.316 L97.908,49 L108.984,49 Z M104.46,44.84 L103.108,44.84 L103.108,18.476 L108.984,18.476 C110.544,18.476 111.991333,18.658 113.326,19.022 C114.660667,19.386 115.813333,19.932 116.784,20.66 C117.754667,21.388 118.508667,22.324 119.046,23.468 C119.583333,24.612 119.852,25.964 119.852,27.524 C119.852,29.084 119.583333,30.436 119.046,31.58 C118.508667,32.724 117.754667,33.66 116.784,34.388 C115.813333,35.116 114.660667,35.662 113.326,36.026 C111.991333,36.39 110.544,36.572 108.984,36.572 L108.984,36.572 L104.46,36.572 L104.46,44.84 Z M108.984,35.324 C110.232,35.324 111.419333,35.194 112.546,34.934 C113.672667,34.674 114.669333,34.2493333 115.536,33.66 C116.402667,33.0706667 117.096,32.2733333 117.616,31.268 C118.136,30.2626667 118.396,29.0146667 118.396,27.524 C118.396,26.0333333 118.136,24.7853333 117.616,23.78 C117.096,22.7746667 116.402667,21.9773333 115.536,21.388 C114.669333,20.7986667 113.672667,20.374 112.546,20.114 C111.419333,19.854 110.232,19.724 108.984,19.724 L108.984,19.724 L104.46,19.724 L104.46,35.324 L108.984,35.324 Z M109.452,31.372 L108.984,31.372 L108.984,23.676 L109.452,23.676 C110.908,23.676 111.956667,24.014 112.598,24.69 C113.239333,25.366 113.56,26.3106667 113.56,27.524 C113.56,28.7373333 113.239333,29.682 112.598,30.358 C111.956667,31.034 110.908,31.372 109.452,31.372 L109.452,31.372 Z" id="ТОР" fill-rule="nonzero"></path>
                <g id="flame_106667" transform="translate(-0.000000, 6.454034)">
                    <path d="M6.02307315,0.00325265893 L6.05814918,0.0133838577 C6.73014548,0.212861514 14.4096108,2.75821601 16.0251983,15.3296913 L16.0352105,15.3292377 C16.3092481,15.3151432 22.0848197,14.9123318 18.028004,6.13162402 C24.6259995,10.4118764 29.0213488,17.4042182 30.0448387,25.2486062 C30.078892,27.4083355 29.8922298,29.565857 29.4878083,31.6870008 C27.5434511,39.0657852 20.4504992,43.825579 12.9509105,42.7842454 C5.45132179,41.7429119 -0.102359824,35.2271068 0.00275209262,27.5929393 C-0.0266200126,26.3349518 0.179340965,25.0826497 0.609852592,23.9015931 C2.05938327,14.6378795 10.9994075,13.9662665 6.01116941,0 C6.01116941,0 6.01519025,0.00105311781 6.02307315,0.00325265893 Z M11.839,13.497 L11.6929974,13.7688586 C9.23282776,18.2972359 7.28088692,21.4615012 6.57206208,28.3240247 C6.49223947,29.1001466 6.57206208,32.5884307 6.57206208,32.5884307 L6.57206208,32.5884307 L6.59866962,32.5713731 C6.93985103,36.8248687 10.5553705,40.0604307 14.8131459,39.9225844 C19.0709214,39.7847381 22.4703159,36.3220668 22.5365854,32.0553799 C22.5187366,28.5639313 20.425647,25.4189872 17.2150776,24.0596187 C12.4474398,21.9298826 11.8474712,15.6895057 11.839531,13.6099826 L11.839,13.497 Z" id="Combined-Shape"></path>
                </g>
            </g>
        </g>
    </g>
</svg>