<?xml version="1.0" encoding="UTF-8"?>
<svg width="16px" height="15px" viewBox="0 0 16 15" version="1.1" xmlns="http://www.w3.org/2000/svg" xmlns:xlink="http://www.w3.org/1999/xlink">
    <title>9A70B3CC-2D91-4500-93EF-6A9A314B14A7</title>
    <g id="Desktop-1920-px" stroke="none" stroke-width="1" fill="none" fill-rule="evenodd">
        <g id="ГЛАВНАЯ-4-Copy" transform="translate(-352.000000, -10894.000000)" fill="#898989" fill-rule="nonzero">
            <g id="ПОДВАЛ" transform="translate(0.000000, 10192.000000)">
                <g id="Group-2" transform="translate(352.000000, 699.000000)">
                    <path d="M12.4737037,5.47761176 C8.21510288,-0.327117322 2.82980283,5.65231429 1.71468274,7.42286678 C-1.26366961,12.1458419 0.101156828,13.7411913 2.30421124,15.9802869 C5.22567484,18.9417199 9.47722751,18.3480317 13.9276391,16.12095 C17.9249544,14.1186288 15.4153049,9.49126456 12.4737037,5.47761176 Z M4.72475182,9.77008778 C5.44467134,8.68633145 6.57841872,8.16823084 7.25504237,8.6137473 C7.93367979,9.05926376 7.8974321,10.2971988 7.17751258,11.3819563 C6.45759306,12.4652121 5.32334225,12.9858156 4.64671859,12.5402991 C3.96808117,12.0957838 4.00483231,10.8548453 4.72475182,9.77008778 L4.72475182,9.77008778 Z M14.1214636,14.0235185 C14.0071826,14.0235185 10.6839737,12.7755719 8.47991243,13.9569414 C6.32921581,15.1092772 6.54468822,16.5008904 6.54468822,16.5008904 C6.54468822,16.5008904 6.50340612,17.1161036 5.76989372,17.0460224 C5.09528382,16.9824487 5.13203496,16.3712401 5.13203496,16.2576084 C5.1300212,16.2120556 5.17281362,15.8481337 5.22064044,15.4301492 L5.30320464,14.9375782 C5.37217595,14.107616 6.58345312,14.082587 7.79271653,12.6193908 C9.78785013,10.2050921 9.41530437,8.11016353 8.16073133,7.25967761 C6.89004821,6.39817892 4.67893876,7.23665092 3.312602,9.79211331 C2.75277647,10.837325 2.81167898,11.8399873 2.306225,11.9280894 C2.06205649,11.9721405 1.63010478,11.8625134 1.4539007,11.6898132 C1.01741803,11.2533072 1.81788798,9.43720189 2.51666301,8.24431905 C4.13069236,5.49613323 7.03352868,3.64799079 9.15905329,4.71923262 C10.9215975,5.60576032 11.6530961,8.53465562 10.4871286,11.1011308 C10.4367846,11.2352863 10.1603959,12.0547362 10.8944117,12.1258186 C11.4179896,12.177879 14.3641217,12.6163873 14.3641217,12.6163873 C14.3641217,12.6163873 14.9833532,12.6574349 14.913375,13.387281 C14.8484312,14.0595603 14.2337307,14.0210156 14.1214636,14.0235185 Z" id="Redmedia"></path>
                </g>
            </g>
        </g>
    </g>
</svg>