<?xml version="1.0" encoding="UTF-8"?>
<svg width="20px" height="21px" viewBox="0 0 20 21" version="1.1" xmlns="http://www.w3.org/2000/svg" xmlns:xlink="http://www.w3.org/1999/xlink">
    <title>EC9FBE04-E5DA-471C-B60F-03A94109A58E</title>
    <g id="Desktop-1920-px" stroke="none" stroke-width="1" fill="none" fill-rule="evenodd" opacity="1">
        <g id="ГЛАВНАЯ-4-Copy" transform="translate(-1060.000000, -10746.000000)" fill="rgba(0, 0, 0, 0.6)" fill-rule="nonzero">
            <g id="ПОДВАЛ" transform="translate(0.000000, 10192.000000)">
                <g id="Поисковое-поле" transform="translate(352.000000, 554.000000)">
                    <path d="M727.636608,18.1647092 L723.516918,14.0450187 C724.676666,12.5681849 725.37479,10.7109338 725.37479,8.68737866 C725.37479,3.88946621 721.485324,4.63629135e-13 716.687411,4.63629135e-13 C711.889466,4.63629135e-13 708,3.88946621 708,8.68737866 C708,13.4852911 711.889466,17.3747573 716.687379,17.3747573 C718.565708,17.3747573 720.299465,16.772841 721.720483,15.7594949 L725.881087,19.9201322 C726.365718,20.4047633 727.151324,20.4047633 727.635955,19.9201322 C728.121239,19.4355339 728.121239,18.6493402 727.636608,18.1647092 Z M721.510781,13.0571623 C721.345098,13.1173571 721.187454,13.20546 721.054679,13.3388561 C720.932459,13.4611086 720.84184,13.6025764 720.781024,13.7533904 C719.662222,14.6587322 718.238721,15.2029372 716.687411,15.2029372 C713.088952,15.2029372 710.171886,12.2858375 710.171886,8.68741134 C710.171886,5.08898517 713.088952,2.17185284 716.687411,2.17185284 C720.28587,2.17185284 723.202937,5.08895249 723.202937,8.68737866 C723.202937,10.3708751 722.558832,11.9004856 721.510781,13.0571623 Z" id="icon-search"></path>
                </g>
            </g>
        </g>
    </g>
</svg>