<?xml version="1.0" encoding="UTF-8"?>
<svg width="260px" height="260px" viewBox="0 0 260 260" version="1.1" xmlns="http://www.w3.org/2000/svg" xmlns:xlink="http://www.w3.org/1999/xlink">
    <title>favicon-ei60doors</title>
    <g id="Вараинты-дизайна" stroke="none" stroke-width="1" fill="none" fill-rule="evenodd">
        <g id="favicon-ei60doors">
            <rect id="Rectangle" fill="#FFFFFF" x="0" y="0" width="260" height="260"></rect>
            <g id="map:fire-station" transform="translate(14.000000, 14.000000)">
                <rect id="ViewBox" x="0" y="0" width="233" height="233"></rect>
                <path d="M118.055638,112.206963 C118.055638,112.206963 95.5889186,130.45578 95.5889186,145.20765 C95.5889186,151.812475 105.218176,158.412613 118.055638,158.412613 C130.883815,158.412613 140.513073,151.812475 140.513073,145.20765 C140.513073,129.926082 118.055638,112.206963 118.055638,112.206963 L118.055638,112.206963 Z M199.960041,78.8500177 C201.260037,62.7809329 205.875024,48.0290631 214,34.5100315 L182.804734,3 C172.95262,11.5689285 161.726225,16.3127773 149.004833,17.1518573 C137.351296,18.215942 126.305971,15.9799579 115.91993,10.4251547 C105.232105,15.7971416 94.2285654,18.0425009 82.756099,17.1518573 C70.8936338,16.0783975 60.1825938,11.831434 50.5951219,4.30315215 L19.3116422,35.7991208 C27.0048339,49.5150316 31.2901785,63.863768 32.1305332,78.8500177 C32.5298177,85.7501615 30.5798234,95.2425467 26.2062648,107.524053 C24.2175131,113.325592 22.4825076,119.212656 21.0062801,125.16817 C19.910569,130.06671 19.228071,134.051168 19.0052145,137.03248 C18.842715,150.110877 22.4780615,161.928311 29.9298253,172.423842 C35.7519511,180.088064 45.3533515,188.553866 58.6875982,197.807183 C73.2800554,205.30734 84.566808,210.173066 92.4735706,212.254359 L99.0292656,215.329424 C101.095331,216.323194 103.305325,217.298215 105.608175,218.362299 C110.58066,221.367049 114.072079,224.629617 115.91993,228 C118.17171,224.357737 121.742056,221.174858 126.496328,218.362299 C129.341348,217.125408 132.161662,215.831374 134.955589,214.480968 L139.90486,212.249672 C141.594855,211.401217 143.818777,210.430884 146.493055,209.362112 C149.818413,208.033289 153.161572,206.750331 156.521597,205.513594 C164.224074,202.761974 169.841915,200.15567 173.398333,197.802496 C186.333295,188.549178 195.790768,180.224005 201.80325,172.770724 C209.524299,162.233005 213.271074,150.368695 213.099288,137.027792 C212.639647,131.055793 210.137154,121.497781 205.59181,108.480323 C201.260037,95.8003708 199.3379,85.9564158 199.960041,78.8500177 Z M118.055638,171.612888 C89.701793,171.612888 63.5022269,147.968645 63.5022269,118.8071 C63.5022269,99.002 78.4986115,80.2937978 82.756099,72.60145 L95.5889186,92.4065501 L118.055638,59.4058626 L140.513073,92.4065501 L153.364463,72.60145 C157.608022,80.2937978 172.618336,99.002 172.618336,118.8071 C172.618336,147.968645 146.414127,171.612888 118.055638,171.612888 L118.055638,171.612888 Z" id="Shape" fill="#E93D38" fill-rule="nonzero"></path>
            </g>
        </g>
    </g>
</svg>