<?xml version="1.0" standalone="no"?>
<!DOCTYPE svg PUBLIC "-//W3C//DTD SVG 20010904//EN"
 "http://www.w3.org/TR/2001/REC-SVG-20010904/DTD/svg10.dtd">
<svg version="1.0" xmlns="http://www.w3.org/2000/svg"
 width="700.000000pt" height="700.000000pt" viewBox="0 0 700.000000 700.000000"
 preserveAspectRatio="xMidYMid meet">
<metadata>
Created by potrace 1.14, written by Peter Selinger 2001-2017
</metadata>
<g transform="translate(0.000000,700.000000) scale(0.100000,-0.100000)"
fill="#000000" stroke="none">
<path d="M5245 6498 c-27 -22 -86 -65 -130 -93 -226 -148 -454 -223 -745 -244
-279 -20 -543 27 -790 141 l-84 39 -76 -35 c-103 -47 -240 -91 -363 -118 -87
-19 -133 -22 -317 -23 -190 0 -227 3 -320 23 -218 49 -437 144 -596 258 -41
30 -78 54 -82 54 -4 0 -195 -188 -425 -418 l-419 -419 70 -144 c145 -298 216
-533 257 -842 38 -297 10 -491 -139 -941 -86 -260 -141 -458 -173 -631 -22
-122 -25 -157 -20 -275 12 -291 99 -562 259 -801 118 -177 405 -445 704 -659
173 -123 590 -321 906 -429 174 -60 451 -188 534 -247 62 -44 194 -178 194
-197 0 -6 34 26 75 70 121 131 164 156 605 353 96 43 274 115 395 160 310 116
419 172 589 298 599 446 823 737 928 1204 20 88 23 130 23 288 -1 184 -1 186
-43 345 -23 88 -78 270 -123 405 -171 519 -203 717 -164 1017 30 228 84 441
162 643 41 108 135 304 181 380 l21 34 -417 421 c-229 231 -419 421 -422 422
-3 1 -27 -16 -55 -39z m-1373 -1940 c156 -230 285 -417 288 -417 3 0 80 115
171 257 91 141 170 256 175 255 12 -3 181 -270 266 -421 118 -211 190 -393
228 -582 19 -91 21 -127 17 -270 -7 -228 -41 -359 -145 -565 -173 -341 -501
-618 -875 -739 -161 -53 -270 -70 -447 -69 -120 0 -178 5 -260 22 -308 65
-559 200 -780 421 -292 291 -430 626 -417 1015 7 225 53 382 188 655 80 160
315 544 328 536 4 -3 82 -120 172 -260 90 -140 166 -255 169 -255 3 0 140 198
304 440 l300 441 17 -24 c10 -13 145 -211 301 -440z"/>
<path d="M3453 3511 c-168 -152 -337 -357 -416 -509 -51 -97 -76 -172 -83
-253 -6 -61 -4 -74 20 -123 35 -72 109 -138 210 -186 112 -53 191 -71 336 -77
102 -4 144 -1 224 16 188 38 348 141 396 253 55 127 -13 329 -188 565 -66 88
-338 370 -379 391 -19 11 -31 2 -120 -77z"/>
</g>
</svg>
