<?xml version="1.0" encoding="UTF-8"?>
<svg width="24px" height="24px" viewBox="0 0 24 24" version="1.1" xmlns="http://www.w3.org/2000/svg" xmlns:xlink="http://www.w3.org/1999/xlink">
    <title>F7E14553-A879-4F3D-8827-4193C18EC9C2</title>
    <g id="Desktop-1920-px" stroke="none" stroke-width="1" fill="none" fill-rule="evenodd" opacity="1">
        <g id="ГЛАВНАЯ-4-Copy" transform="translate(-1404.000000, -29.000000)" fill="#FFFFFF" fill-rule="nonzero">
            <g id="Блок-Контакты" transform="translate(1404.000000, 29.000000)">
                <g id="Group" transform="translate(0.000000, -0.000000)">
                    <g id="Кнопки-мессенджеров" transform="translate(0.000000, -0.000000)">
                        <g id="Viber@2x" transform="translate(-0.000000, -0.000000)">
                            <path d="M12,24 C18.627417,24 24,18.627417 24,12 C24,5.372583 18.627417,-1.77635684e-15 12,-1.77635684e-15 C5.372583,-1.77635684e-15 0,5.372583 0,12 C0,18.627417 5.372583,24 12,24 Z M17.8657958,11.7179892 C18.0009651,11.459863 18.3971031,11.4219262 18.5773567,11.6516867 C18.6722564,11.7700846 18.6841173,11.8624765 18.6674857,12.2769198 C18.6224454,13.4918749 18.3591573,14.5955115 17.8966163,15.5239133 C17.5645619,16.1894033 17.2514584,16.6180888 16.686932,17.1841251 C16.084451,17.7833039 15.6290485,18.1124961 14.9174921,18.4606588 C14.1940307,18.8135411 13.5346442,19.0101063 12.7186906,19.1119418 C12.5573923,19.1308904 12.2609203,19.1545761 12.0593041,19.1616775 C11.6726635,19.1735203 11.5943997,19.1593177 11.4829125,19.0574602 C11.3002955,18.8940462 11.309749,18.5435457 11.499544,18.3943343 C11.6015294,18.316167 11.6797976,18.2996046 12.1304734,18.2735547 C13.4634661,18.1954093 14.4810361,17.8354037 15.4653781,17.0964967 C16.6466097,16.2130935 17.3866629,14.9815495 17.6665429,13.4397795 C17.7377166,13.0466227 17.7732595,12.7174305 17.7969855,12.2082355 C17.8112141,11.876644 17.8230749,11.8032578 17.8657958,11.7179892 Z M16.0630061,4.49062892 L16.1793508,4.49453424 C16.5825833,4.5135004 16.8885483,4.63898207 17.3202291,4.96581445 C17.7969943,5.32817983 18.4801024,6.17607202 18.6556293,6.62838607 C18.8216983,7.05709788 18.7789774,7.44546923 18.5323208,7.74861149 C18.3923368,7.91678899 17.3581749,8.75992207 16.8743197,9.09859732 C16.5066784,9.3543681 15.9374209,9.70724601 15.6764962,9.8422547 C15.332581,10.017516 14.9910291,10.0482854 14.6565673,9.9346071 C14.3932792,9.84461448 14.305518,9.76646914 13.9212848,9.28330211 C13.7220363,9.0370232 13.5393754,8.81438608 13.5156933,8.79305573 C13.4895643,8.77176933 13.4065694,8.72439347 13.3283057,8.68886047 C13.0175699,8.54441264 12.5929791,8.63204107 11.8980102,8.97780007 C11.3572054,9.24545327 10.8780769,9.58408458 10.3349088,10.0814587 C9.87236781,10.5030472 9.40510011,11.0524727 9.14421939,11.4811406 C8.80739424,12.0329699 8.55124025,12.7505773 8.54883288,13.146094 C8.54883288,13.3166137 8.61764321,13.5581774 8.70304108,13.6813388 C8.73622055,13.7310789 8.94733426,13.918183 9.17267214,14.1005236 C9.73483517,14.5528816 9.860507,14.6949916 9.93645142,14.9649827 C10.0099445,15.2160295 9.93168069,15.5547047 9.69688496,16.0117823 C9.28652276,16.8122986 8.03175415,18.4156427 7.58111799,18.7140654 C7.50758094,18.7614413 7.37950174,18.8277437 7.29646723,18.8561534 C7.12566709,18.9177364 6.85765228,18.9437863 6.70348369,18.9106218 C6.4781458,18.863268 6.19590241,18.695108 5.58392396,18.2403727 C5.2162827,17.9656577 4.71106479,17.4730296 4.59244344,17.2741001 C4.31733414,16.8028023 4.33392608,16.4025442 4.66834385,15.4812702 C5.2423721,13.9015854 6.08205179,12.3787465 7.18497557,10.9103803 C9.29601582,8.09912961 11.9549509,6.0529106 15.2851289,4.68163836 C15.7097197,4.5063771 15.8472963,4.4779674 16.1793508,4.49453424 Z M16.3050666,12.2319213 C16.4141905,12.1750623 16.6110316,12.1703427 16.703524,12.2177186 C16.7889262,12.2626951 16.8885483,12.3716539 16.9194084,12.4521591 C16.9525879,12.5374277 16.9525879,13.0513642 16.9217718,13.3332025 C16.8340061,14.1029054 16.5778521,14.8205129 16.1674899,15.4315433 C15.4369341,16.5162357 14.3221496,17.1841251 12.8823566,17.394893 C12.3154625,17.4801616 12.1257114,17.4493702 12.0023678,17.2575289 C11.8885171,17.0846538 11.9027853,16.8762413 12.0379546,16.7222884 C12.1257158,16.6204529 12.253795,16.5730947 12.486267,16.5541285 L12.7296407,16.5273213 C13.3016204,16.4481927 13.8931236,16.255736 14.3102931,16.0070627 C14.8653221,15.6778486 15.3207202,15.2041866 15.6338237,14.6310489 C15.908933,14.1289553 16.0678679,13.4823919 16.0678679,12.8690016 C16.0678679,12.4711252 16.1224056,12.3242737 16.3050666,12.2319213 Z M14.5569453,12.8382146 C14.7135168,12.7174305 14.9720342,12.722172 15.1119698,12.8500574 C15.2614073,12.9874259 15.2874967,13.1531997 15.2234571,13.5747662 C15.1286058,14.2213297 14.9127257,14.6713279 14.5189951,15.0431324 C14.2130301,15.3297078 13.8548422,15.5073289 13.3875745,15.6068046 C13.2903555,15.6281305 13.1076945,15.6494389 12.9843464,15.6565446 C12.7851376,15.6683875 12.7471873,15.6636459 12.6570187,15.6186518 C12.4174523,15.4954904 12.3510493,15.1615567 12.5242128,14.955504 C12.6190685,14.8442074 12.7068298,14.8110561 12.9986146,14.7755231 C13.6200465,14.6997376 13.9876878,14.4676349 14.1964381,14.0200229 C14.2936572,13.8092286 14.3506023,13.5818719 14.3814184,13.2573993 C14.4075078,13.0134758 14.4430947,12.9234832 14.5569453,12.8382146 Z" id="Shape" transform="translate(12.000000, 12.000000) scale(-1, 1) rotate(-180.000000) translate(-12.000000, -12.000000) "></path>
                        </g>
                    </g>
                </g>
            </g>
        </g>
    </g>
</svg>