<?xml version="1.0" encoding="UTF-8"?>
<svg width="24px" height="24px" viewBox="0 0 24 24" version="1.1" xmlns="http://www.w3.org/2000/svg" xmlns:xlink="http://www.w3.org/1999/xlink">
    <title>1F8E65E5-0C04-4E06-9236-5529CA0DA18F</title>
    <g id="Desktop-1920-px" stroke="none" stroke-width="1" fill="none" fill-rule="evenodd" opacity="1">
        <g id="ГЛАВНАЯ-4-Copy" transform="translate(-1486.000000, -29.000000)" fill="#FFFFFF" fill-rule="nonzero">
            <g id="Блок-Контакты" transform="translate(1404.000000, 29.000000)">
                <g id="Group" transform="translate(0.000000, -0.000000)">
                    <g id="Кнопки-мессенджеров" transform="translate(0.000000, -0.000000)">
                        <g id="WhatsApp@2x" transform="translate(82.000000, 0.000000)">
                            <path d="M12,0 C18.627417,0 24,5.372583 24,12 C24,18.627417 18.627417,24 12,24 C5.372583,24 0,18.627417 0,12 C0,5.372583 5.372583,0 12,0 Z M12.3954688,4.4 C8.4624086,4.4 5.26139024,7.60084673 5.25982493,11.5351221 C5.25928943,12.7927433 5.58786658,14.0202597 6.21230734,15.1024223 L6.21230734,15.1024223 L5.2,18.8 L8.98267407,17.8077258 C10.0249007,18.3762137 11.1983523,18.6758464 12.3925854,18.6762584 L12.3925854,18.6762584 C16.3297443,18.6746519 19.5294925,15.4741347 19.5310722,11.5407518 C19.5318268,9.63416671 18.7902969,7.84140969 17.4431032,6.49270553 C16.0959094,5.14393272 14.3043195,4.40082385 12.3954688,4.4 Z" id="Combined-Shape"></path>
                            <path d="M12.3978717,5.60521769 C13.9819898,5.60576692 15.471091,6.22344528 16.5908347,7.34449339 C17.7105784,8.46554151 18.3268837,9.95560387 18.3262663,11.5403398 C18.3249614,14.8105681 15.6644202,17.4711711 12.3955375,17.4711711 L12.3955375,17.4711711 C11.3288975,17.4707592 10.2850918,17.1848367 9.37450197,16.6444762 L9.37450197,16.6444762 L9.15793352,16.5159426 L6.91324218,17.1047726 L7.512384,14.9162126 L7.37136907,14.6918176 C6.77768522,13.7475599 6.46412953,12.656184 6.464589,11.5355341 C6.46588706,8.26555295 9.12646261,5.60521769 12.3978717,5.60521769 Z M9.86922135,8.23987642 C9.75036787,8.23987642 9.55719664,8.2845014 9.3937731,8.46300132 C9.23034956,8.64150123 8.769758,9.07285314 8.769758,9.95038618 C8.769758,10.8279879 9.40862292,11.6757938 9.49777676,11.7947709 C9.58691687,11.9138166 10.7549928,13.7146473 12.5435551,14.4869409 C12.9689341,14.6706516 13.3010126,14.7803536 13.5599748,14.8625116 C13.9870702,14.998247 14.3757881,14.9790926 14.6829452,14.9331632 C15.0255278,14.8819955 15.7378111,14.5018868 15.8864466,14.0854259 C16.0349448,13.6688827 16.0349448,13.3119034 15.9903885,13.2375651 C15.9458321,13.1631924 15.8269924,13.1185743 15.6486984,13.0292969 C15.4704045,12.9400606 14.5938326,12.5087843 14.4303679,12.4492271 C14.2669718,12.3897523 14.1480634,12.360032 14.0292236,12.5384633 C13.9103839,12.7169289 13.5686939,13.1185743 13.4646833,13.2375651 C13.3606728,13.3565215 13.2566623,13.3714606 13.078437,13.2821832 L12.9786126,13.2369432 C12.7338275,13.1306047 12.2283586,12.9179129 11.6446227,12.3972424 C11.1145878,11.9244579 10.7567641,11.3406259 10.6527605,11.162126 C10.5487568,10.9836261 10.6416729,10.8871675 10.7309297,10.7982608 C10.8111448,10.7183477 10.9092374,10.5899651 10.9983775,10.4858859 C11.0875176,10.3818067 11.117231,10.307386 11.1766646,10.1884776 C11.2360913,10.0694319 11.2063848,9.96535271 11.161801,9.87610275 C11.117231,9.78685279 10.7606637,8.9092511 10.6120899,8.55225127 C10.467354,8.20458836 10.320373,8.25168488 10.2109388,8.24619257 C10.1070588,8.24097488 9.98806797,8.23987642 9.86922135,8.23987642 Z" id="Combined-Shape"></path>
                        </g>
                    </g>
                </g>
            </g>
        </g>
    </g>
</svg>