<?xml version="1.0" encoding="UTF-8"?>
<svg width="36px" height="25px" viewBox="0 0 36 25" version="1.1" xmlns="http://www.w3.org/2000/svg" xmlns:xlink="http://www.w3.org/1999/xlink">
    <title>Shape</title>
    <g id="Desktop" stroke="none" stroke-width="1" fill="none" fill-rule="evenodd">
        <g id="Страница-по-умолчанию-+-стили" transform="translate(-231.000000, -3362.000000)" fill="#6F6F6F" fill-rule="nonzero">
            <g id="Цитата" transform="translate(180.000000, 3322.000000)">
                <path d="M87,58.2894737 C87,56.9736842 86.5492424,55.7236842 85.6477273,54.5394737 C84.7462121,53.3552632 83.4368687,52.7631579 81.719697,52.7631579 C81.0328283,52.7631579 80.3244949,52.872807 79.594697,53.0921053 C78.864899,53.3114035 78.1136364,53.7280702 77.3409091,54.3421053 C76.8257576,53.5526316 76.5681818,52.2807018 76.5681818,50.5263158 C76.5681818,47.7192982 77.3409091,45.6359649 78.8863636,44.2763158 C80.4318182,42.9166667 82.7070707,41.9298246 85.7121212,41.3157895 L85.7121212,40 C83.6515152,40 81.655303,40.3289474 79.7234848,40.9868421 C77.7916667,41.6447368 76.1174242,42.6096491 74.7007576,43.8815789 C73.2840909,45.1535088 72.1464646,46.6666667 71.2878788,48.4210526 C70.4292929,50.1754386 70,52.1491228 70,54.3421053 C70,57.2368421 70.8585859,59.7368421 72.5757576,61.8421053 C74.2929293,63.9473684 76.6111111,65 79.530303,65 C81.5050505,65 83.2436869,64.4298246 84.7462121,63.2894737 C86.2487374,62.1491228 87,60.4824561 87,58.2894737 Z M68,58.2894737 C68,56.9736842 67.5423077,55.7236842 66.6269231,54.5394737 C65.7115385,53.3552632 64.3820513,52.7631579 62.6384615,52.7631579 C61.9410256,52.7631579 61.2217949,52.872807 60.4807692,53.0921053 C59.7397436,53.3114035 58.9769231,53.7280702 58.1923077,54.3421053 C57.6692308,53.377193 57.4076923,52.1052632 57.4076923,50.5263158 C57.4076923,47.7192982 58.1923077,45.6359649 59.7615385,44.2763158 C61.3307692,42.9166667 63.6410256,41.9298246 66.6923077,41.3157895 L66.6923077,40 C64.6,40 62.5730769,40.3289474 60.6115385,40.9868421 C58.65,41.6447368 56.95,42.6096491 55.5115385,43.8815789 C54.0730769,45.1535088 52.9615385,46.6666667 52.1769231,48.4210526 C51.3923077,50.1754386 51,52.1491228 51,54.3421053 C51,57.2368421 51.8282051,59.7368421 53.4846154,61.8421053 C55.1410256,63.9473684 57.4512821,65 60.4153846,65 C62.4205128,65 64.1858974,64.4298246 65.7115385,63.2894737 C67.2371795,62.1491228 68,60.4824561 68,58.2894737 Z" id="Shape"></path>
            </g>
        </g>
    </g>
</svg>