<svg width="22" height="22" viewBox="0 0 22 22" fill="none" xmlns="http://www.w3.org/2000/svg">
    <path d="M21.6386 19.9036L17.4844 15.7616C18.8247 14.054 19.552 11.9454 19.5493 9.77463C19.5493 4.37625 15.173 0 9.77463 0C4.37625 0 0 4.37625 0 9.77463C0 15.173 4.37625 19.5493 9.77463 19.5493C11.9454 19.552 14.054 18.8247 15.7616 17.4844L19.9036 21.6386C20.133 21.8699 20.4453 22 20.7711 22C21.0969 22 21.4092 21.8699 21.6386 21.6386C21.8699 21.4092 22 21.0969 22 20.7711C22 20.4453 21.8699 20.133 21.6386 19.9036ZM2.44366 9.77463C2.44366 5.72584 5.72584 2.44366 9.77463 2.44366C13.8234 2.44366 17.1056 5.72584 17.1056 9.77463C17.1056 13.8234 13.8234 17.1056 9.77463 17.1056C5.72584 17.1056 2.44366 13.8234 2.44366 9.77463Z" fill="black"/>
</svg>