<?xml version="1.0" encoding="UTF-8"?>
<svg width="24px" height="24px" viewBox="0 0 24 24" version="1.1" xmlns="http://www.w3.org/2000/svg" xmlns:xlink="http://www.w3.org/1999/xlink">
    <title>1C90679D-8383-45A1-BAFC-1DDD947CF2BA</title>
    <g id="Desktop-1920-px" stroke="none" stroke-width="1" fill="none" fill-rule="evenodd">
        <g id="ГЛАВНАЯ-4-Copy" transform="translate(-1285.000000, -10420.000000)">
            <g id="ПОДВАЛ" transform="translate(0.000000, 10192.000000)">
                <g id="Social-buttons" transform="translate(1183.000000, 228.000000)">
                    <g id="Vimeo" transform="translate(102.000000, 0.000000)">
                        <rect id="Rectangle-Copy-3" x="0" y="0" width="24" height="24"></rect>
                        <path d="M19.9922206,8.11686736 C19.9210014,9.63329219 18.83334,11.7093265 16.7290519,14.3449702 C14.553729,17.097027 12.7130997,18.4736842 11.2080862,18.4736842 C10.2750406,18.4736842 9.48590954,17.6359767 8.84106193,15.9593042 C8.41061001,14.4223993 7.9805271,12.885674 7.54989068,11.3487691 C7.07091374,9.67299481 6.55761874,8.83420942 6.00816061,8.83420942 C5.88841638,8.83420942 5.46958832,9.07943154 4.75241446,9.56771997 L4,8.62383939 C4.78968462,7.9485354 5.5684834,7.27305177 6.33473579,6.59666989 C7.38789463,5.71099588 8.17905529,5.24480438 8.70600372,5.19791576 C9.95067953,5.08132297 10.7171164,5.90986832 11.0047609,7.6835518 C11.3156531,9.59754185 11.5309713,10.7877225 11.6516381,11.2535547 C12.0110553,12.8414801 12.4060821,13.6346345 12.837272,13.6346345 C13.171781,13.6346345 13.6751126,13.1197578 14.3459756,12.089286 C15.0155469,11.0595328 15.3745951,10.2758999 15.4229356,9.73730948 C15.5186941,8.84858141 15.1596459,8.40304966 14.3459756,8.40304966 C13.9629416,8.40304966 13.5679148,8.48892231 13.1616331,8.65851182 C13.9481812,6.15113814 15.450427,4.93329145 17.6678171,5.00281596 C19.3117634,5.04970459 20.0872411,6.08772172 19.9922206,8.11686736" id="Fill-4" fill="#FFFFFE"></path>
                    </g>
                </g>
            </g>
        </g>
    </g>
</svg>