<?xml version="1.0" encoding="UTF-8"?>
<svg width="24px" height="24px" viewBox="0 0 24 24" version="1.1" xmlns="http://www.w3.org/2000/svg" xmlns:xlink="http://www.w3.org/1999/xlink">
    <title>FA1BF3FA-D57C-4715-B2B4-760C479E861B</title>
    <g id="Desktop-1920-px" stroke="none" stroke-width="1" fill="none" fill-rule="evenodd">
        <g id="ГЛАВНАЯ-4-Copy" transform="translate(-1183.000000, -10420.000000)">
            <g id="ПОДВАЛ" transform="translate(0.000000, 10192.000000)">
                <g id="VK" transform="translate(1183.000000, 228.000000)">
                    <rect id="Rectangle" x="0" y="0" width="24" height="24"></rect>
                    <path d="M12.3337055,16.9623829 C12.3337055,16.9623829 12.6405182,16.9307478 12.7976661,16.7741154 C12.9415105,16.6306 12.9365217,16.3597726 12.9365217,16.3597726 C12.9365217,16.3597726 12.9173979,15.0951397 13.5501471,14.9084154 C14.17375,14.7247775 14.9744563,16.1313825 15.8242192,16.6722658 C16.4661146,17.0812074 16.9533564,16.9917032 16.9533564,16.9917032 L19.2241027,16.9623829 C19.2241027,16.9623829 20.4114427,16.8944831 19.8485371,16.0279897 C19.8019748,15.9570036 19.5201062,15.3868 18.1606517,14.2155293 C16.7363425,12.9894759 16.9275808,13.187774 18.6420732,11.0666784 C19.6864003,9.77503994 20.1037986,8.98647693 19.9732577,8.64929294 C19.8493686,8.32676912 19.0810897,8.4124154 19.0810897,8.4124154 L16.525149,8.42707557 C16.525149,8.42707557 16.3355737,8.40315634 16.1950551,8.48108674 C16.0578625,8.55747396 15.9688951,8.7357108 15.9688951,8.7357108 C15.9688951,8.7357108 15.5648004,9.73491736 15.025176,10.5852074 C13.8868927,12.3783781 13.4320782,12.4732834 13.2458288,12.3621748 C12.8126326,12.1021496 12.9207238,11.3189877 12.9207238,10.7626727 C12.9207238,9.02428474 13.2050867,8.29976354 12.3677958,8.11226764 C12.0900846,8.049769 11.8855428,8.00887483 11.1746354,8.00193054 C10.2625122,7.99344307 9.49090741,8.00501689 9.05355385,8.20331503 C8.76253913,8.33525659 8.53804206,8.63000323 8.67523471,8.64697817 C8.84402325,8.66781105 9.22649974,8.74265509 9.42937858,8.99882234 C9.69129183,9.32983362 9.68214565,10.0721013 9.68214565,10.0721013 C9.68214565,10.0721013 9.83264184,12.1183529 9.33043357,12.3722054 C8.98620473,12.5465843 8.51392941,12.1908822 7.49870376,10.563603 C6.97903462,9.73028783 6.58658048,8.80901167 6.58658048,8.80901167 C6.58658048,8.80901167 6.51091665,8.63694753 6.37538693,8.54435696 C6.21158722,8.43247669 5.98293279,8.39775522 5.98293279,8.39775522 L3.55420707,8.4124154 C3.55420707,8.4124154 3.18919146,8.42167445 3.05532468,8.56904778 C2.93642438,8.69944616 3.04617851,8.97027358 3.04617851,8.97027358 C3.04617851,8.97027358 4.94775185,13.0990414 7.1012608,15.1800144 C9.07600356,17.0873801 11.3176484,16.9623829 11.3176484,16.9623829 L12.3337055,16.9623829 Z" id="Shape" fill="#FFFFFF"></path>
                </g>
            </g>
        </g>
    </g>
</svg>