<?xml version="1.0" encoding="UTF-8"?>
<svg width="24px" height="24px" viewBox="0 0 24 24" version="1.1" xmlns="http://www.w3.org/2000/svg" xmlns:xlink="http://www.w3.org/1999/xlink">
    <title>0661BF09-154E-4DF2-B49B-2953702BCC8A</title>
    <g id="Desktop-1920-px" stroke="none" stroke-width="1" fill="none" fill-rule="evenodd">
        <g id="ГЛАВНАЯ-4-Copy" transform="translate(-1251.000000, -10420.000000)">
            <g id="ПОДВАЛ" transform="translate(0.000000, 10192.000000)">
                <g id="Social-buttons" transform="translate(1183.000000, 228.000000)">
                    <g id="Instagram" transform="translate(68.000000, 0.000000)">
                        <rect id="Rectangle-Copy-2" x="0" y="0" width="24" height="24"></rect>
                        <path d="M12.00075,4 C9.82806071,4 9.5553912,4.0095 8.70204898,4.04833333 C7.85037344,4.08733333 7.26903405,4.22216667 6.76036209,4.42 C6.23418994,4.62433333 5.78785196,4.89766667 5.34318066,5.3425 C4.89817602,5.78716667 4.62483984,6.2335 4.41983771,6.7595 C4.22150231,7.26833333 4.0865009,7.84983333 4.04816717,8.70116667 C4.0100001,9.5545 4,9.82733333 4,12 C4,14.1726667 4.00966677,14.4445 4.04833384,15.2978333 C4.08750091,16.1495 4.22233565,16.7308333 4.42000438,17.2395 C4.62450651,17.7656667 4.89784269,18.212 5.34268065,18.6566667 C5.78718528,19.1016667 6.23352327,19.3756667 6.75936208,19.58 C7.26836738,19.7778333 7.84987344,19.9126667 8.70138231,19.9516667 C9.55472453,19.9905 9.82722737,20 11.99975,20 C14.172606,20 14.4444421,19.9905 15.2977844,19.9516667 C16.1494599,19.9126667 16.731466,19.7778333 17.2404713,19.58 C17.7664767,19.3756667 18.212148,19.1016667 18.6566527,18.6566667 C19.1016573,18.212 19.3749935,17.7656667 19.5799956,17.2396667 C19.7766643,16.7308333 19.9116657,16.1493333 19.9516662,15.298 C19.9899999,14.4446667 20,14.1726667 20,12 C20,9.82733333 19.9899999,9.55466667 19.9516662,8.70133333 C19.9116657,7.84966667 19.7766643,7.26833333 19.5799956,6.75966667 C19.3749935,6.2335 19.1016573,5.78716667 18.6566527,5.3425 C18.211648,4.8975 17.7666434,4.62416667 17.2399712,4.42 C16.7299659,4.22216667 16.1482932,4.08733333 15.2966177,4.04833333 C14.4432755,4.0095 14.171606,4 11.99825,4 L12.00075,4 Z M11.2830759,5.44166667 C11.4960781,5.44133333 11.7337472,5.44166667 12.00075,5.44166667 C14.1367723,5.44166667 14.3899416,5.44933333 15.2334503,5.48766667 C16.0134585,5.52333333 16.4367962,5.65366667 16.7187992,5.76316667 C17.0921364,5.90816667 17.3583058,6.0815 17.6381421,6.3615 C17.918145,6.6415 18.0914801,6.90816667 18.236815,7.2815 C18.3463161,7.56316667 18.4768175,7.9865 18.5123178,8.7665 C18.5506516,9.60983333 18.558985,9.86316667 18.558985,11.9981667 C18.558985,14.1331667 18.5506516,14.3865 18.5123178,15.2298333 C18.4766508,16.0098333 18.3463161,16.4331667 18.236815,16.7148333 C18.0918135,17.0881667 17.918145,17.354 17.6381421,17.6338333 C17.3581391,17.9138333 17.092303,18.0871667 16.7187992,18.2321667 C16.4371296,18.3421667 16.0134585,18.4721667 15.2334503,18.5078333 C14.3901082,18.5461667 14.1367723,18.5545 12.00075,18.5545 C9.86456109,18.5545 9.61139179,18.5461667 8.76804967,18.5078333 C7.98804154,18.4718333 7.5647038,18.3415 7.28253419,18.232 C6.90919697,18.087 6.64252753,17.9136667 6.36252461,17.6336667 C6.08252169,17.3536667 5.90918655,17.0876667 5.76385171,16.7141667 C5.65435057,16.4325 5.52384921,16.0091667 5.48834884,15.2291667 C5.4500151,14.3858333 5.44234836,14.1325 5.44234836,11.9961667 C5.44234836,9.85983333 5.4500151,9.60783333 5.48834884,8.7645 C5.52401588,7.9845 5.65435057,7.56116667 5.76385171,7.27916667 C5.90885322,6.90583333 6.08252169,6.63916667 6.36252461,6.35916667 C6.64252753,6.07916667 6.90919697,5.90583333 7.28253419,5.7605 C7.56453713,5.6505 7.98804154,5.5205 8.76804967,5.48466667 C9.50605735,5.45133333 9.79206033,5.44133333 11.2830759,5.43966667 L11.2830759,5.44166667 Z M16.2711278,6.77 C15.7411223,6.77 15.3111178,7.1995 15.3111178,7.72966667 C15.3111178,8.25966667 15.7411223,8.68966667 16.2711278,8.68966667 C16.8011333,8.68966667 17.2311378,8.25966667 17.2311378,7.72966667 C17.2311378,7.19966667 16.8011333,6.76966667 16.2711278,6.76966667 L16.2711278,6.77 Z M12.00075,7.89166667 C9.73189304,7.89166667 7.89237388,9.73116667 7.89237388,12 C7.89237388,14.2688333 9.73189304,16.1075 12.00075,16.1075 C14.269607,16.1075 16.1084595,14.2688333 16.1084595,12 C16.1084595,9.73116667 14.2694403,7.89166667 12.0005833,7.89166667 L12.00075,7.89166667 Z M12.00075,9.33333333 C13.473432,9.33333333 14.6674445,10.5271667 14.6674445,12 C14.6674445,13.4726667 13.473432,14.6666667 12.00075,14.6666667 C10.5279013,14.6666667 9.33405556,13.4726667 9.33405556,12 C9.33405556,10.5271667 10.5279013,9.33333333 12.00075,9.33333333 L12.00075,9.33333333 Z" id="Shape" fill="#FFFFFF"></path>
                    </g>
                </g>
            </g>
        </g>
    </g>
</svg>