<?xml version="1.0" encoding="UTF-8"?>
<svg width="18px" height="18px" viewBox="0 0 18 18" version="1.1" xmlns="http://www.w3.org/2000/svg" xmlns:xlink="http://www.w3.org/1999/xlink">
    <title>B7420CAD-0A36-4C1B-97EC-C2663ADFE02B</title>
    <g id="Desktop-1920-px" stroke="none" stroke-width="1" fill="none" fill-rule="evenodd">
        <g id="КОНТАКТЫ" transform="translate(-351.000000, -804.000000)">
            <g id="i" transform="translate(352.000000, 805.000000)">
                <circle id="Oval" stroke="#DEB75F" fill="#FFFACB" cx="8" cy="8" r="8"></circle>
                <path d="M8.03027344,4.66699219 C8.22167969,4.66699219 8.38460286,4.59863281 8.51904297,4.46191406 C8.65348307,4.32519531 8.72070312,4.16113281 8.72070312,3.96972656 C8.72070312,3.77832031 8.65348307,3.61539714 8.51904297,3.48095703 C8.38460286,3.34651693 8.22167969,3.27929688 8.03027344,3.27929688 C7.8343099,3.27929688 7.66910807,3.34651693 7.53466797,3.48095703 C7.40022786,3.61539714 7.33300781,3.77832031 7.33300781,3.96972656 C7.33300781,4.16113281 7.40136719,4.32519531 7.53808594,4.46191406 C7.67480469,4.59863281 7.83886719,4.66699219 8.03027344,4.66699219 Z M9.54785156,13 L9.54785156,12.7539062 C9.2516276,12.7539062 9.0476888,12.7220052 8.93603516,12.6582031 C8.82438151,12.594401 8.74007161,12.4975586 8.68310547,12.3676758 C8.62613932,12.237793 8.59765625,11.976888 8.59765625,11.5849609 L8.59765625,11.5849609 L8.59765625,6.55371094 L8.296875,6.55371094 L6.41015625,7.31933594 L6.50585938,7.56542969 C6.68815104,7.49707031 6.84309896,7.46289062 6.97070312,7.46289062 C7.08919271,7.46289062 7.18261719,7.4913737 7.25097656,7.54833984 C7.31933594,7.60530599 7.36946615,7.70670573 7.40136719,7.85253906 C7.44238281,8.0530599 7.46289062,8.49283854 7.46289062,9.171875 L7.46289062,11.5849609 C7.46289062,11.9723307 7.43212891,12.234375 7.37060547,12.3710938 C7.30908203,12.5078125 7.22591146,12.6057943 7.12109375,12.6650391 C7.01627604,12.7242839 6.81119792,12.7539062 6.50585938,12.7539062 L6.50585938,12.7539062 L6.50585938,13 L9.54785156,13 Z" fill="#DEB75F" fill-rule="nonzero"></path>
            </g>
        </g>
    </g>
</svg>