<?xml version="1.0" encoding="UTF-8"?>
<svg width="141px" height="37px" viewBox="0 0 141 37" version="1.1" xmlns="http://www.w3.org/2000/svg" xmlns:xlink="http://www.w3.org/1999/xlink">
    <title>4BE78F31-5876-420A-8EC4-B0583BDCBE07</title>
    <g id="Desktop-1920-px" stroke="none" stroke-width="1" fill="none" fill-rule="evenodd">
        <g id="-ОТЗЫВЫ" transform="translate(-1301.000000, -324.000000)" fill-rule="nonzero">
            <g id="Group-2" transform="translate(872.000000, 313.000000)">
                <g id="Group" transform="translate(118.000000, 11.000000)">
                    <g id="logo-YandexMarket" transform="translate(311.000000, 0.000000)">
                        <path d="M8.09967568,8.63333333 L5.45634426,8.63333333 C2.79659463,8.63333333 0.563718397,10.7114155 0.563718397,14.76621 C0.563718397,17.1652968 1.63090189,18.9223745 3.65034142,19.9022831 L0.0383357538,26.6940639 C-0.0601734916,26.9136986 0.0383357538,27.1333333 0.251772452,27.1333333 L1.95926604,27.1333333 C2.05777529,27.1333333 2.17270274,27.1333333 2.27121198,26.9136986 L5.57127171,20.2401826 L6.73696445,20.2401826 L6.73696445,26.9136986 C6.73696445,27.0150685 6.83547369,27.1333333 6.95040115,27.1333333 L8.44445804,27.1333333 C8.54296728,27.1333333 8.65789474,27.0319634 8.65789474,26.9136986 L8.65789474,8.85296803 C8.42803983,8.63333333 8.31311237,8.63333333 8.09967568,8.63333333 Z M6.622037,18.5844749 L5.5548535,18.5844749 C3.96228737,18.5844749 2.46823048,17.3849315 2.46823048,14.4283105 C2.46823048,11.3703196 3.84735991,10.1538813 5.3414168,10.1538813 L6.50710954,10.1538813 L6.622037,18.5844749 Z" id="Fill-11" fill="#FE0000"></path>
                        <path d="M18.2948283,14.8 L16.6191067,14.8 C16.5086195,14.8 16.3797179,14.9010929 16.3797179,15.0190346 L16.3797179,19.7030054 L13.2860781,19.7030054 L13.2860781,15.0190346 C13.2860781,14.9179417 13.2860781,14.8 13.0466893,14.8 L11.3709677,14.8 C11.2604806,14.8 11.1315789,14.9010929 11.1315789,15.0190346 L11.1315789,26.9142988 C11.1315789,27.0153916 11.1315789,27.1333333 11.3709677,27.1333333 L13.0466893,27.1333333 C13.1571764,27.1333333 13.2860781,27.0322405 13.2860781,26.9142988 L13.2860781,21.2362477 L16.3981324,21.2362477 L16.3981324,26.9142988 C16.3981324,27.0153916 16.5086195,27.1333333 16.6375212,27.1333333 L18.3132428,27.1333333 C18.4237299,27.1333333 18.5526316,27.0322405 18.5526316,26.9142988 L18.5526316,15.0190346 C18.5342171,14.9010929 18.4237299,14.8 18.2948283,14.8" id="Fill-13" fill="#000000"></path>
                        <path d="M53.1842105,26.3019971 L52.9405901,25.4548245 C52.9405901,25.3570738 52.9405901,25.3570738 52.8281499,25.3570738 C52.7157097,25.3570738 51.9848484,25.568867 50.8791866,25.568867 C48.8177831,25.568867 47.8433015,23.8745218 47.8433015,21.1375027 C47.8433015,18.7100274 48.6866029,16.3965945 50.1483253,16.3965945 C50.5043859,16.3965945 50.9916268,16.4943452 51.722488,17.0319739 C51.8349282,17.1297246 51.8349282,17.1297246 51.9661084,17.1297246 C52.0785486,17.1297246 52.0785486,17.1297246 52.2097289,16.9179314 L52.9405901,15.8589658 C52.9405901,15.7612151 53.0530303,15.7612151 53.0530303,15.6471726 C53.0530303,15.5494219 52.9405901,15.4353794 52.8094099,15.4353794 C51.722488,14.9140425 50.9916268,14.8 50.2607655,14.8 C47.7121212,14.8 45.7631579,17.4392685 45.7631579,21.5447972 C45.7631579,25.1289889 47.7121212,27.132878 50.3732057,27.132878 C51.4788676,27.1491697 52.6969697,26.7255835 53.1842105,26.3019971 C53.1842105,26.5137903 53.1842105,26.3997478 53.1842105,26.3019971" id="Fill-15" fill="#000000"></path>
                        <path d="M42.0347063,20.3601093 L45.1716247,15.0190346 C45.1716247,14.9179417 45.1716247,14.8 45.0640732,14.8 L43.5583524,14.8 C43.0922959,14.8 42.9847445,14.9010929 42.8592677,15.2380693 L40.5289855,19.8209472 C40.421434,20.0399818 40.2959572,20.2590164 40.1884058,20.3601093 L40.1884058,15.0190346 C40.1884058,14.9179417 40.1884058,14.8 40.0808543,14.8 L38.4496567,14.8 C38.3421053,14.8 38.3421053,14.9010929 38.3421053,15.0190346 L38.3421053,26.9142988 C38.3421053,27.0153916 38.3421053,27.1333333 38.4496567,27.1333333 L40.0808543,27.1333333 C40.1884058,27.1333333 40.1884058,27.0322405 40.1884058,26.9142988 L40.1884058,20.7981785 C40.2959572,20.7981785 40.2959572,20.8992714 40.421434,21.0172131 L43.3253242,26.6952641 C43.4328756,27.0153916 43.6659039,27.0153916 44.0244089,27.0153916 L45.6556064,27.0153916 C45.7631579,27.0153916 45.7631579,26.9142988 45.7631579,26.7963571 L42.0347063,20.3601093 Z" id="Fill-17" fill="#000000"></path>
                        <path d="M28.229665,25.5114155 L27.9114832,25.5114155 C27.5933015,25.5114155 27.4760766,25.4100456 27.4760766,25.0721461 L27.4760766,15.0196347 C27.4760766,14.9182648 27.4760766,14.8 27.3755981,14.8 L22.5023923,14.8 C22.4019139,14.8 22.284689,14.9013699 22.284689,15.0196347 L22.284689,15.8981736 C22.284689,18.8547945 22.0669856,22.6899544 20.5430622,25.5283105 L20.0071771,25.5283105 C19.9066986,25.5283105 19.7894737,25.6296803 19.7894737,25.7479452 L19.7894737,29.3634703 C19.7894737,29.4648402 19.8899521,29.5831051 20.0071771,29.5831051 L21.1961723,29.5831051 C21.4138756,29.5831051 21.514354,29.3634703 21.514354,29.2621005 L21.514354,27.1840183 L26.7224881,27.1840183 L26.7224881,29.3803653 C26.7224881,29.4817352 26.8229665,29.6 26.9401913,29.6 L28.1291866,29.6 C28.229665,29.6 28.4473684,29.4986301 28.4473684,29.2789954 L28.4473684,25.8831051 C28.4473684,25.6296803 28.3301435,25.5114155 28.229665,25.5114155 Z M25.6172248,25.5114155 L22.1507177,25.5114155 C23.3397129,23.4333333 23.8923445,21.0173516 23.992823,18.0776255 C23.992823,17.4187215 24.0933014,16.7598174 24.0933014,16.3205479 L25.6172248,16.3205479 L25.6172248,25.5114155 Z" id="Fill-19" fill="#000000"></path>
                        <path d="M33.6855857,14.8 C30.9533692,14.8 29.6842105,17.9317626 29.6842105,21.4832461 C29.6842105,25.0347295 31.3940493,27.1333333 33.9147394,27.1333333 C35.1662707,27.1333333 36.312039,26.7136126 36.7703464,26.4068936 C36.8761095,26.4068936 36.8761095,26.3100349 36.8761095,26.1970332 L36.6469559,25.3575916 C36.6469559,25.260733 36.5411927,25.260733 36.4178022,25.260733 C36.312039,25.260733 35.6245781,25.4705934 34.584573,25.4705934 C32.6455807,25.4705934 31.7289662,23.9047121 31.7289662,21.8061082 L31.7289662,21.2895288 C31.7289662,21.2895288 32.7513439,21.3863874 33.3330417,21.3863874 L37.1052632,21.3863874 L37.1052632,20.4500872 C37.1052632,16.785602 35.6245781,14.8 33.6855857,14.8 Z M33.4392632,19.8847361 C32.7155339,19.8847361 31.5394737,19.980015 31.5394737,19.980015 C31.5394737,19.980015 31.5394737,19.6782983 31.5394737,19.2654228 C31.8334887,17.3122039 32.5572181,16.280015 33.5975789,16.280015 C34.6153234,16.280015 35.3616693,17.3122039 35.4973684,19.058985 C35.4973684,19.4718605 35.4973684,19.8847361 35.4973684,19.8847361 L33.4392632,19.8847361 Z" id="Fill-21" fill="#000000"></path>
                        <path d="M130.270693,0 L59.3684211,0 L59.3684211,37 L130.270693,37 L141,18.5426463 L130.270693,0 Z M128.049657,3.20700784 L137.019222,18.5597049 L128.049657,33.912402 L62.8024829,33.912402 L62.8024829,3.20700784 L128.049657,3.20700784 Z" id="Fill-23" fill="#FFCC00"></path>
                        <polygon id="Path-3" fill="#000000" points="72.307452 24.6666667 70.5 24.6666667 70.5 12.3333333 72.8110762 12.3333333 76.1173091 19.9738346 79.626388 12.3333333 81.6315789 12.3333333 81.6315789 24.4826341 80.1243468 24.4826341 80.1243468 14.912465 76.6186061 22.4582752 75.7162715 22.4582752 72.307452 14.912465"></polygon>
                        <path d="M89.3322655,20.551752 C89.2354691,20.551752 87.9771167,20.551752 87.3479405,20.7734104 C86.9284897,20.8757141 86.4122426,21.0973724 86.0895881,21.3190307 C85.8798627,21.540689 85.6701373,21.7623472 85.6701373,22.2056638 C85.6701373,22.6489803 85.8798627,22.9729425 85.9766591,23.0922969 C86.2831808,23.4162591 86.7026316,23.4162591 87.0252861,23.4162591 C87.3318078,23.4162591 87.6544622,23.4162591 87.960984,23.1946007 C88.3804347,22.9729425 88.8966819,22.529626 89.2193364,22.0863094 L89.3322655,20.551752 Z M84.7344394,17.0222703 C85.7830663,16.2549916 86.8316933,16.0333333 87.7673913,16.0333333 C89.0257437,16.0333333 89.6549199,16.3572955 90.058238,16.800612 C90.6874141,17.4655868 90.6874141,18.4545238 90.6874141,19.1194985 L90.6874141,21.9840056 C90.6874141,22.4273221 90.6874141,22.9729425 90.8971395,23.1946007 C90.9939359,23.2969046 91.3165904,23.4162591 91.5263158,23.4162591 L91.3165904,24.6268542 C90.8003433,24.7291581 90.2679634,24.6268542 89.9614416,24.4051959 C89.7517163,24.1835377 89.5419909,23.8595756 89.4451945,23.5185628 C89.2354691,23.842525 88.8160184,24.1835377 88.3965675,24.2858415 C87.9771167,24.5074998 87.4608696,24.6098036 86.7187643,24.6098036 C86.0895881,24.6098036 85.3636156,24.5074998 84.8312357,23.9448287 C84.5247139,23.6208666 84.1052632,22.9558919 84.1052632,22.1715625 C84.1052632,21.3872332 84.4117849,20.7393091 84.8312357,20.3982963 C85.4604119,19.7333215 86.5090389,19.5116632 87.0252861,19.4093594 C87.7512586,19.3070556 88.5901602,19.3070556 89.2193364,19.3070556 L89.2193364,19.2047517 C89.2193364,18.7614352 89.2193364,18.0964604 88.7998856,17.7724982 C88.4933639,17.4485362 87.960984,17.4485362 87.6544622,17.4485362 C87.1382151,17.4485362 86.8155606,17.55084 86.3961098,17.6701945 C86.0895881,17.7724982 85.6701373,17.8918527 85.3474828,18.1135109 L84.7344394,17.0222703 Z" id="Fill-3" fill="#000000"></path>
                        <path d="M94,16.0796106 L95.3106697,16.1505189 L95.3106697,17.0522137 C95.8723844,16.5217029 96.4653058,16.1975018 97.0894338,16.0796106 C98.0256259,15.9027737 100.740583,16.1505189 101.208679,18.2900722 C101.676775,20.4296255 101.489537,23.0646693 99.429914,23.8604356 C98.0568323,24.3909464 96.6837508,24.1843019 95.3106697,23.240502 L95.3106697,27.1333333 L94,27.1333333 L94,16.0796106 Z M95.4979073,18.3628557 L95.4979073,22.0036478 C96.1844482,22.6520498 96.9958146,22.946778 97.9320066,22.8878323 C99.3362948,22.7994139 99.9145646,21.3847184 99.9145646,19.7931861 C99.9145646,18.2016537 99.3362948,17.4204442 97.9320066,17.4204442 C96.9958146,17.4204442 96.1844482,17.7345814 95.4979073,18.3628557 Z" id="Combined-Shape" fill="#000000"></path>
                        <path d="M103.894737,16.2271708 L103.894737,24.3519463 L105.29549,24.3519463 L105.29549,20.768626 L106.191729,20.768626 C106.684814,20.9732549 107.067646,21.3450176 107.340226,21.8839139 C107.749095,22.6922586 108.488722,24.2560965 108.842105,24.52981 C109.077694,24.7122856 109.489975,24.7122856 110.078947,24.52981 L110.078947,23.2524809 C109.607769,23.3133061 109.254386,23.1004179 109.018797,22.6138163 C108.665414,21.8839139 108.31203,21.1312022 108.046993,20.7890605 C107.870301,20.560966 107.634712,20.408903 107.340226,20.3328715 C107.612805,20.3328715 107.963854,19.8440446 108.393373,18.8663909 C108.822892,17.8887371 109.306101,17.3342636 109.842999,17.2029701 L109.842999,16.0385756 C109.122585,15.9955529 108.585687,16.2173423 108.232303,16.7039439 C107.702228,17.4338462 106.81015,19.5117313 106.191729,19.5117313 C105.779449,19.5117313 105.480702,19.5117313 105.29549,19.5117313 L105.29549,16.2271708 L103.894737,16.2271708 Z" id="Path-5" fill="#000000"></path>
                        <path d="M113.02829,20.7587729 L113.02829,21.4347317 C113.105186,22.4504886 113.666363,23.0525534 114.711823,23.2409259 C115.757282,23.4292985 116.802742,23.2353743 117.848201,22.6591534 L118.534284,23.6952024 C116.116659,24.8882287 114.221764,24.9824149 112.849598,23.9777613 C110.791349,22.4707808 110.987373,18.4985769 112.359539,17.1021628 C113.731704,15.7057488 116.083988,15.7835548 117.456154,16.7254177 C118.370931,17.3533262 118.795649,18.697778 118.730308,20.7587729 L113.02829,20.7587729 Z M112.849598,19.5510061 L117.457197,19.5510061 C117.456502,18.734725 117.22746,18.1068164 116.770071,17.6672805 C116.083988,17.0079765 114.907846,17.0079765 114.02574,17.3847217 C113.437669,17.6358851 113.045622,18.3579799 112.849598,19.5510061 Z" id="Combined-Shape" fill="#000000"></path>
                        <polygon id="Combined-Shape" fill="#000000" points="123.909091 17.2666667 123.909091 24.6666667 122.222488 24.6666667 122.222488 17.2666667 119.973684 17.2666667 119.973684 16.0333333 126.157895 16.0333333 126.157895 17.2666667"></polygon>
                    </g>
                </g>
            </g>
        </g>
    </g>
</svg>