<svg width="32" height="32" viewBox="0 0 32 32" xmlns="http://www.w3.org/2000/svg"><path d="M4.43103926,31.8786257 C4.4597474,31.8005994 4.50280963,31.6933132 4.52673308,31.6396701 C4.66070444,31.298305 5.01477161,30.0108709 5.16309704,29.323264 C5.32099186,28.5966439 5.37840815,28.2260189 5.45496322,27.4213726 C5.48367136,27.1287739 5.48367136,26.0412822 5.45496322,25.7633134 C5.39276223,25.1439795 5.36883877,24.973297 5.28271433,24.5685355 C5.13438889,23.8809286 4.92864716,23.3103612 4.54587185,22.5203448 C4.17266592,21.7498349 3.95735481,21.3938398 2.74682788,19.5602215 C1.66548763,17.9167923 1.26835824,17.1609123 0.880798236,16.0100242 C0.694195272,15.4589634 0.593716752,15.0785851 0.48366885,14.4738812 C0.459745393,14.366595 0.397544405,14.1130095 0.335343417,13.913067 C0.21094144,13.4985522 0.0865394639,12.9182315 0.0339078585,12.5085934 C-0.0330778211,11.938026 0.00519971009,10.1336675 0.0961088467,9.67038624 C0.120032304,9.55334677 0.134386378,9.46069052 0.187017983,9.10957211 C0.249218972,8.69505732 0.560223913,7.62219551 0.780319717,7.06138138 C1.04826244,6.38352778 1.46453059,5.58375806 1.91429158,4.89127453 C1.99084664,4.76935842 2.0674017,4.66207224 2.08175578,4.6474423 C2.09610985,4.63281237 2.16788022,4.53527948 2.24443529,4.42799329 C2.97649307,3.41365122 4.17745061,2.30665289 5.31142247,1.61416936 C6.55544224,0.853412805 7.96214151,0.326735188 9.28271634,0.136546049 C9.38797955,0.121916115 9.50281214,0.097532892 9.53630498,0.0877796028 C9.62242943,0.0585197352 10.6032912,0 11.0291287,0 C11.3927652,0 12.1487465,0.048766446 12.3688423,0.0829029582 C12.435828,0.097532892 12.6511391,0.131669404 12.8473114,0.160929272 C13.6320008,0.287722031 14.6272166,0.599827286 15.4501836,0.97532892 C17.9334384,2.11158711 19.9765016,4.22317422 21.0482725,6.76390606 C21.2444448,7.22718729 21.5889426,8.26103595 21.6224355,8.4853616 C21.6511436,8.65604416 21.7133446,9.05105237 21.722914,9.08518889 C21.7276987,9.09981882 21.7468374,9.2509948 21.7707609,9.42655401 C21.7946844,9.60211321 21.8138231,9.7532892 21.8186078,9.76791913 C21.8233925,9.78254906 21.8425313,9.96786156 21.86167,10.1824339 C21.8855935,10.3970063 21.9095169,10.6115786 21.9190863,10.6603451 C21.986072,11.0407234 22.0291342,13.0596542 21.9765026,13.4010194 C21.9573639,13.5375654 21.9286557,13.7326312 21.9143016,13.8399174 C21.86167,14.1959124 21.6942058,15.0005588 21.5506651,15.5955094 C21.4071243,16.1660768 20.947794,17.6388235 20.8138226,17.9362988 C20.7803298,18.0143251 20.6607125,18.3020472 20.5506646,18.5702626 C19.8999466,20.1600488 18.8186063,21.9644073 17.6702804,23.3835108 C17.4262611,23.6858628 16.8186053,24.3880996 16.6942033,24.5148924 C15.8520976,25.3585519 15.3879826,25.7876966 14.7851114,26.2802377 C14.1343934,26.811792 13.273149,27.4360025 13.2396561,27.401866 C13.2348714,27.3921127 13.3018571,27.2165535 13.3927663,27.0117344 C13.4836754,26.8069154 13.5602304,26.6264795 13.5602304,26.6167262 C13.5602304,26.6020963 13.6224314,26.4216604 13.7037712,26.2119647 C13.8520966,25.8072032 14.1200393,24.8465042 14.1631016,24.519769 C14.1822403,24.4124829 14.2013791,24.2710602 14.2157332,24.2027871 C14.2683648,23.9053118 14.2396566,23.0372691 14.1631016,22.6910273 C14.0243455,22.0814467 13.8520966,21.7644648 13.4310438,21.3353201 C13.1439623,21.0475981 12.5554453,20.7354928 12.1391771,20.6477132 C11.7181243,20.5599336 11.7276936,20.555057 11.675062,20.9793251 C11.6176457,21.4621129 11.4023346,22.5593579 11.2444398,23.1981984 C10.4071188,26.52407 8.8568788,29.0989383 6.67984421,30.7716274 C6.00041804,31.2934284 4.98127877,31.8639958 4.50759432,31.9810353 C4.37840765,32.0151718 4.37840765,32.0151718 4.43103926,31.8786257 Z M8.66549115,21.7303283 C8.66549115,21.5303859 8.72769213,20.7013563 8.75640028,20.4819073 C8.79467781,20.1649254 8.88558695,19.6284945 8.92386448,19.4724419 C8.94778794,19.3797856 8.97649609,19.2334863 8.99085016,19.15546 C9.04348177,18.8482314 9.32099387,17.9704353 9.50759683,17.521784 C9.90951091,16.5562084 10.3544872,15.8686015 10.9812818,15.2297611 C11.4693203,14.7274667 11.9525741,14.3909782 12.698986,14.0301065 C13.2444408,13.7618911 13.8808048,13.3668828 14.187025,13.0986674 C15.5123845,11.9331493 16.2970739,10.4360194 16.4645381,8.72919383 C16.8042512,5.31066597 14.1391781,2.28714632 10.7516166,2.24325651 C10.1918077,2.23837987 9.83295585,2.27251638 9.35448671,2.38467921 C7.24922249,2.86746702 5.53630297,4.5596627 5.00520222,6.67124981 C4.81859926,7.40762314 4.79946049,7.68559189 4.78510642,9.25587145 C4.77553704,10.6310852 4.83773803,11.5478944 5.00041753,12.4256904 C5.02434099,12.5622365 5.05783383,12.747549 5.06740321,12.8402052 C5.29228371,14.3275818 5.86644668,16.2636097 6.55544224,17.8387659 C6.70376767,18.1801311 7.28271533,19.3602791 7.50759583,19.7845471 C7.59850496,19.950353 7.76118447,20.2575817 7.87123237,20.472154 C7.98606497,20.6867264 8.12482102,20.9500652 8.18223731,21.0573514 C8.23965361,21.1646376 8.36884028,21.3987165 8.46453411,21.584029 C8.56022794,21.7644648 8.64635238,21.9107642 8.65592176,21.9107642 C8.66070645,21.9107642 8.66549115,21.8278612 8.66549115,21.7303283 Z" transform="matrix(1 0 0 -1 5 32)" fill="#93C718"/></svg>