<?xml version="1.0" standalone="no"?>
<!DOCTYPE svg PUBLIC "-//W3C//DTD SVG 20010904//EN"
 "http://www.w3.org/TR/2001/REC-SVG-20010904/DTD/svg10.dtd">
<svg version="1.0" xmlns="http://www.w3.org/2000/svg"
 width="700.000000pt" height="700.000000pt" viewBox="0 0 700.000000 700.000000"
 preserveAspectRatio="xMidYMid meet">
<metadata>
Created by potrace 1.14, written by Peter Selinger 2001-2017
</metadata>
<g transform="translate(0.000000,700.000000) scale(0.100000,-0.100000)"
fill="#000000" stroke="none">
<path d="M2141 6754 c6 -16 15 -38 20 -49 28 -70 102 -334 133 -475 33 -149
45 -225 61 -390 6 -60 6 -283 0 -340 -13 -127 -18 -162 -36 -245 -31 -141 -74
-258 -154 -420 -78 -158 -123 -231 -376 -607 -226 -337 -309 -492 -390 -728
-39 -113 -60 -191 -83 -315 -5 -22 -18 -74 -31 -115 -26 -85 -52 -204 -63
-288 -14 -117 -6 -487 13 -582 5 -24 8 -43 19 -115 13 -85 78 -305 124 -420
56 -139 143 -303 237 -445 16 -25 32 -47 35 -50 3 -3 18 -23 34 -45 153 -208
404 -435 641 -577 260 -156 554 -264 830 -303 22 -3 46 -8 53 -10 18 -6 223
-18 312 -18 76 0 234 10 280 17 14 3 59 10 100 16 164 26 372 90 544 167 519
233 946 666 1170 1187 41 95 113 307 120 353 6 35 19 116 21 123 1 3 5 34 10
70 5 36 9 67 10 70 1 3 5 41 9 85 5 44 10 88 12 98 14 78 23 492 12 562 -4 28
-10 68 -13 90 -11 73 -46 238 -76 360 -30 117 -126 419 -154 480 -7 16 -32 75
-55 130 -136 326 -362 696 -602 987 -51 62 -178 206 -204 232 -176 173 -273
261 -399 362 -136 109 -316 237 -323 230 -1 -2 13 -38 32 -80 19 -42 35 -79
35 -81 0 -3 13 -40 30 -83 31 -83 87 -280 96 -347 4 -22 8 -51 11 -65 11 -61
5 -239 -11 -310 -29 -125 -65 -190 -153 -278 -60 -59 -183 -123 -270 -141 -88
-18 -86 -19 -97 68 -12 99 -57 324 -90 455 -175 682 -499 1210 -954 1553 -142
107 -355 224 -454 248 -27 7 -27 7 -16 -21z m885 -2081 c0 -41 13 -211 19
-256 8 -65 27 -175 35 -207 5 -19 11 -49 14 -65 11 -63 69 -243 108 -335 84
-198 177 -339 308 -470 102 -103 203 -172 359 -246 114 -55 247 -136 311 -191
277 -239 441 -546 476 -896 71 -701 -486 -1321 -1194 -1330 -117 -1 -192 6
-292 29 -440 99 -798 446 -909 879 -39 151 -43 208 -46 530 -2 282 11 470 45
650 5 28 12 66 14 85 47 305 167 702 311 1025 31 70 152 312 199 399 19 34 53
97 76 141 24 44 53 98 65 120 12 22 39 70 59 108 20 37 38 67 40 67 1 0 2 -17
2 -37z"/>
</g>
</svg>
